# xmcd
#
# Track frame offsets:
#	150
#	14450
#	30736
#	47420
#	61908
#	78541
#	102641
#	122504
#	142524
#	166276
#	184330
#
# Disc length: 2671 seconds
#
# Revision: 1
# Processed by: cddbd v1.5.2PL0 Copyright (c) Steve Scherf et al.
# Submitted via: audiograbber 1.83.01
#
DISCID=880a6d0b
DTITLE=Duffy Kane - Dead Man Walking
DYEAR=2014
DGENRE=
TTITLE0=Roadhouse Boogie Woogie
TTITLE1=Danny Buchanan
TTITLE2=Dead Man Walking
TTITLE3=Duffy´s Breakdown
TTITLE4=Sweeter Than
TTITLE5=Son Of The Republic
TTITLE6=America The Beatiful
TTITLE7=Eyes Of The World
TTITLE8=Growing Up Tree
TTITLE9=Why My Road
TTITLE10=Truck Driving Man
EXTD=
EXTT0=
EXTT1=
EXTT2=
EXTT3=
EXTT4=
EXTT5=
EXTT6=
EXTT7=
EXTT8=
EXTT9=
EXTT10=
PLAYORDER=
